<?xml version="1.0" encoding="UTF-8"?>
<svg id="Layer_1" data-name="Layer 1" xmlns="http://www.w3.org/2000/svg" viewBox="0 0 1500 1500">
  <defs>
    <style>
      .cls-1 {
        fill: #fff;
      }
    </style>
  </defs>
  <path class="cls-1" d="M313.09,653.74c-24.39,0-46.01,17.18-46.01,47.92v5.09h-16.33v7h16.33v81h-16.33v7h13.57l11.66-.21,11.66.21h13.57v-7h-16.33v-81h16.33v-7h-16.33v-4.88c0-29.26,11.66-41.14,29.69-41.14,5.3,0,11.66,2.33,14.21,5.51v.42l-2.54,2.33c-3.39,3.18-4.88,6.57-4.88,9.97,0,6.57,5.51,11.87,12.72,11.87s12.51-5.73,12.51-13.15c0-12.51-14.42-23.96-33.5-23.96ZM346.17,794.75v-90.33l-1.06-1.06-9.54,3.39h-23.54v7h16.33v81h-16.33v7h13.57l11.66-.21,11.66.21h13.57v-7h-16.33Z"/>
  <path class="cls-1" d="M431.82,751.07l-29.26-10.6c-10.18-3.6-14.21-8.48-14.21-15.27,0-9.33,8.27-15.06,17.39-15.06,13.78,0,24.39,11.45,27.57,29.05h4.67v-35.2h-4.67l-5.3,7c-7.21-5.3-14.84-7.63-22.48-7.63-15.48,0-28.41,13.36-28.41,28.2,0,12.72,7.85,22.05,15.06,24.6l25.87,9.33c9.12,3.18,14.63,8.69,14.63,16.12,0,9.54-7,16.54-19.08,16.54-14.42,0-27.57-10.6-31.38-36.05h-5.51v42.41h4.67l5.94-9.33c8.27,6.79,16.33,9.97,26.08,9.97,18.66,0,31.6-15.27,31.6-30.96,0-11.03-6.36-20.57-13.15-23.11Z"/>
  <path class="cls-1" d="M548.02,794.75v-70.82c0-7-1.48-9.75-5.94-13.57-3.82-3.39-11.87-7-20.14-7-13.36,0-24.17,6.36-31.17,19.3h-.42v-67.86l-1.06-1.06-9.54,3.39h-23.54v7h16.33v130.62h-16.33v7h13.57l11.66-.21,11.66.21h13.57v-7h-16.33v-32.87c0-30.32,10.6-50.68,26.72-50.68,8.91,0,13.15,4.67,13.15,13.15v70.4h-16.33v7h13.57l11.66-.21,11.66.21h13.57v-7h-16.33Z"/>
  <path class="cls-1" d="M698.15,760.4c0,22.27-11.66,37.74-32.44,37.74-14.63,0-24.6-10.6-24.6-29.69v-27.35c0-10.81,3.18-19.08,7.42-23.33,4.45-4.45,11.66-7.42,18.24-7.42,9.12,0,14.42,2.76,18.87,7v.42l-1.7,1.06c-5.3,3.39-8.06,6.57-8.06,12.51,0,6.79,5.51,12.3,12.3,12.3s12.94-5.73,12.94-14.21c0-13.15-15.27-26.08-34.35-26.08-25.45,0-47.5,25.02-47.5,50.89s21.84,50.89,46.01,50.89c25.45,0,39.87-18.87,39.87-44.74h-7Z"/>
  <path class="cls-1" d="M815.84,754.25v25.23c0,10.39-4.24,16.33-11.45,16.33-4.67,0-7.63-3.6-7.63-9.75v-59.8c0-7.21-1.06-11.03-6.36-15.27-5.3-4.24-14.63-7.63-25.02-7.63-21.63,0-38.59,11.66-38.59,26.08,0,8.48,6.15,14.21,12.72,14.21,7,0,12.09-5.09,12.09-12.09,0-4.67-1.91-8.69-9.33-11.66l-2.76-1.06v-.42c4.45-4.67,12.93-7.85,21.42-7.85,13.78,0,18.02,6.36,18.02,15.9v3.82c0,17.6-21.2,22.48-33.29,24.81-16.54,3.18-22.69,9.75-22.69,23.96v5.09c0,12.93,10.6,20.99,27.35,20.99,12.51,0,22.27-5.73,29.05-15.27h.42c1.91,10.18,9.33,14,20.14,14,15.69,0,22.9-10.18,22.9-23.96v-25.66h-7ZM778.94,765.49c0,18.87-10.39,31.81-25.23,31.81-5.94,0-12.09-2.12-12.09-12.09v-7.85c0-10.39,4.67-14.63,12.72-16.96,7.21-2.12,19.72-5.94,24.17-14h.42v19.08Z"/>
  <path class="cls-1" d="M889,703.36c-10.6,0-21.42,6.15-26.93,16.12h-.42v-15.06l-1.06-1.06-9.12,3.39h-23.96v7h16.33v125.53h-16.33v7h13.57l11.66-.21,11.66.21h20.14v-7h-22.9v-48.98h.42c7,9.75,16.33,14.84,26.93,14.84,21.42,0,41.77-25.66,41.77-50.89s-20.36-50.89-41.77-50.89ZM908.93,769.09c0,13.57-2.54,20.78-7,24.6-3.6,3.18-8.91,4.45-12.93,4.45-15.27,0-28.2-17.18-28.2-42.62v-2.54c0-25.45,12.93-42.62,28.2-42.62,4.03,0,9.33,1.27,12.93,4.45,4.45,3.82,7,11.03,7,24.6v29.69Z"/>
  <path class="cls-1" d="M977,794.75v-90.33l-1.06-1.06-9.54,3.39h-23.54v7h16.33v81h-16.33v7h13.57l11.66-.21,11.66.21h13.57v-7h-16.33Z"/>
  <path class="cls-1" d="M1073.27,754.25v20.14c0,23.75-15.69,30.75-29.47,30.75-5.5,0-11-1.2-15.56-3.56-3.36-1.73-6.21-4.07-8.19-7.04-3.18-4.45-3.18-10.18-3.18-17.18v-63.61h-22.27v-7h5.09c.21,0,.41,0,.61-.02,6.66-.09,11.77-1.5,15.72-5.1-.06-29.1-11.71-40.91-29.69-40.91-5.3,0-11.66,2.33-14.21,5.51v.42l2.54,2.33c3.39,3.18,4.88,6.57,4.88,9.97,0,6.57-5.51,11.87-12.72,11.87s-12.51-5.73-12.51-13.15c0-12.51,14.42-23.96,33.5-23.96,15.74,0,30.32,7.15,38.7,20.49,4.59,7.33,7.32,16.52,7.32,27.43v5.09h.85v.02h28.63v7h-28.63v65.95c0,7.54,1.38,12.36,4.33,15.04,2.11,1.94,5.01,2.77,8.82,2.77.79,0,1.58-.05,2.33-.15,9.24-1.2,16.12-9.56,16.12-21.9v-21.2h7Z"/>
  <path class="cls-1" d="M1183.53,754.25v25.23c0,10.39-4.24,16.33-11.45,16.33-4.68,0-7.65-3.6-7.65-9.75v-59.8c0-7.21-1.05-11.03-6.35-15.27-5.3-4.24-14.63-7.63-25.02-7.63-21.63,0-38.59,11.66-38.59,26.08,0,8.48,6.15,14.21,12.72,14.21,7,0,12.09-5.09,12.09-12.09,0-4.67-1.91-8.69-9.33-11.66l-2.76-1.06v-.42c4.45-4.67,12.93-7.85,21.42-7.85,13.78,0,18.02,6.36,18.02,15.9v3.82c0,17.6-21.2,22.48-33.29,24.81-16.54,3.18-22.69,9.75-22.69,23.96v5.09c0,12.93,10.6,20.99,27.35,20.99,12.51,0,22.27-5.73,29.05-15.27h.42c1.91,10.18,9.32,14,20.14,14,15.68,0,22.9-10.18,22.9-23.96v-25.66h-7ZM1146.64,765.49c0,18.87-10.39,31.81-25.23,31.81-5.94,0-12.09-2.12-12.09-12.09v-7.85c0-10.39,4.67-14.63,12.72-16.96,7.21-2.12,19.72-5.94,24.16-14h.44v19.08Z"/>
  <path class="cls-1" d="M1232.93,794.75v-139.95l-1.06-1.06-9.54,3.39h-23.54v7h16.33v130.62h-16.33v7h13.57l11.66-.21,11.68.21h13.56v-7h-16.33Z"/>
</svg>